<svg width="48" height="48" viewBox="0 0 48 48" fill="none" xmlns="http://www.w3.org/2000/svg">
<g clip-path="url(#clip0_153_13714)">
<path d="M34.7473 27.0936V46.1436C34.7473 46.7548 34.2523 47.2498 33.641 47.2498H26.8348C26.2235 47.2498 25.7285 46.7548 25.7285 46.1436V27.0936C25.7285 26.4861 26.2235 25.9873 26.8348 25.9873H33.641C34.2523 25.9873 34.7473 26.4861 34.7473 27.0936Z" fill="#999999"/>
<path d="M38.4579 8.93994L37.1416 8.46744C36.9579 8.40369 36.7591 8.48619 36.6729 8.66619C33.2791 15.7949 28.8616 21.5849 23.5629 25.9199C18.2679 30.2549 12.0954 33.1349 5.19161 34.4324C5.07536 34.4549 4.95911 34.4662 4.84286 34.4662C4.46786 34.4662 4.10036 34.3499 3.78911 34.1287C3.38036 33.8399 3.11411 33.4049 3.03911 32.9062C2.88911 31.9199 3.53786 31.0087 4.51286 30.8249C20.3191 27.8474 28.8579 16.4024 33.2379 7.32369C33.2866 7.22619 33.2866 7.11744 33.2454 7.01994C33.2041 6.91869 33.1254 6.83994 33.0204 6.80244L31.9141 6.41244C31.5579 6.28494 31.3029 5.96994 31.2504 5.59119C31.1979 5.21619 31.3591 4.84494 31.6704 4.62369L36.9241 0.933691C37.2054 0.738691 37.5616 0.697441 37.8804 0.821191C38.1991 0.948691 38.4316 1.22244 38.4991 1.55994L39.7929 7.78119C39.8679 8.14494 39.7479 8.50869 39.4666 8.75244C39.1854 8.99619 38.8066 9.06744 38.4579 8.93994Z" fill="#999999"/>
<path d="M47.2276 13.3685V46.1435C47.2276 46.7547 46.7288 47.2497 46.1213 47.2497H39.3113C38.7038 47.2497 38.2051 46.7547 38.2051 46.1435V13.3685C38.2051 12.761 38.7038 12.2622 39.3113 12.2622H46.1213C46.7288 12.2622 47.2276 12.761 47.2276 13.3685Z" fill="#999999"/>
<path d="M9.79398 39.1985V46.1435C9.79398 46.7548 9.29523 47.2498 8.68773 47.2498H1.87773C1.27023 47.2498 0.771484 46.7548 0.771484 46.1435V39.1985C0.771484 38.5873 1.27023 38.0923 1.87773 38.0923H8.68773C9.29523 38.0923 9.79398 38.5873 9.79398 39.1985Z" fill="#999999"/>
<path d="M22.2707 35.7078V46.1441C22.2707 46.7553 21.7757 47.2503 21.1645 47.2503H14.3582C13.7357 47.2503 13.252 46.7628 13.252 46.1441V35.7078C13.252 35.1003 13.747 34.6016 14.3582 34.6016H21.1645C21.7757 34.6016 22.2707 35.1003 22.2707 35.7078Z" fill="#999999"/>
<path d="M10.7101 1.23389C5.60633 1.23389 1.45508 5.38514 1.45508 10.4926C1.45508 15.5964 5.60633 19.7514 10.7101 19.7514C15.8251 19.7514 19.9838 15.5964 19.9838 10.4926C19.9838 5.38514 15.8251 1.23389 10.7101 1.23389ZM9.70845 9.68414C9.97845 9.95789 10.3385 10.1109 10.7225 10.1139C11.9296 10.1248 12.9031 11.1163 12.8922 12.3238C12.887 12.908 12.6537 13.4555 12.236 13.8654C11.9093 14.186 11.4998 14.387 11.0581 14.459L11.054 14.897C11.0521 15.1033 10.8845 15.2686 10.679 15.2686C10.6778 15.2686 10.6767 15.2686 10.6756 15.2686C10.4686 15.2668 10.3021 15.0973 10.304 14.8903L10.3081 14.456C9.86745 14.3761 9.46208 14.1643 9.14108 13.8373C8.73045 13.4195 8.5077 12.8675 8.51295 12.2836C8.51483 12.0774 8.68245 11.912 8.88795 11.912H8.89133C9.09833 11.9139 9.26483 12.0834 9.26295 12.2904C9.25958 12.674 9.4062 13.0366 9.6762 13.3119C9.9462 13.5864 10.3062 13.7401 10.6895 13.7431C11.0675 13.7585 11.4357 13.5995 11.7106 13.3299C11.9855 13.0599 12.1388 12.6999 12.1422 12.3166C12.1493 11.5228 11.5092 10.871 10.7153 10.8635C10.1318 10.8583 9.58433 10.6261 9.17445 10.2103C8.76383 9.79364 8.54033 9.24276 8.54558 8.65889C8.55083 8.07464 8.78408 7.52714 9.20183 7.11689C9.52995 6.79476 9.93345 6.58739 10.3801 6.51689L10.3842 6.08564C10.3861 5.87939 10.5537 5.71401 10.7592 5.71401H10.7626C10.9696 5.71589 11.1361 5.88539 11.1342 6.09239L11.1301 6.52664C11.5707 6.60689 11.9761 6.81839 12.2971 7.14539C12.7073 7.56314 12.9305 8.11476 12.9252 8.69864C12.9233 8.90564 12.7726 9.07326 12.5468 9.07026C12.3398 9.06839 12.1733 8.89889 12.1752 8.69189C12.1786 8.30864 12.032 7.94601 11.762 7.67076C11.492 7.39589 11.132 7.24251 10.7483 7.23914C10.7438 7.23914 10.7393 7.23914 10.7348 7.23914C10.3565 7.23914 9.99908 7.38576 9.7272 7.65276C9.45233 7.92276 9.29895 8.28276 9.29558 8.66601C9.2922 9.04926 9.43883 9.41076 9.70845 9.68414Z" fill="#999999"/>
</g>
<defs>
<clipPath id="clip0_153_13714">
<rect width="48" height="48" fill="white"/>
</clipPath>
</defs>
</svg>
