<svg width="48" height="48" viewBox="0 0 48 48" fill="none" xmlns="http://www.w3.org/2000/svg">
<g clip-path="url(#clip0_153_13772)">
<path d="M8.87634 7.73539V1.22576C8.87634 0.693074 9.31209 0.257324 9.84478 0.257324H13.6044C14.1371 0.257324 14.5729 0.693074 14.5729 1.22576V7.73539C14.5729 8.26807 14.1371 8.70382 13.6044 8.70382H9.84478C9.31219 8.70382 8.87634 8.26798 8.87634 7.73539ZM34.3956 8.70382H38.1552C38.6879 8.70382 39.1237 8.26807 39.1237 7.73539V1.22576C39.1237 0.693074 38.6879 0.257324 38.1552 0.257324H34.3956C33.8629 0.257324 33.4271 0.693074 33.4271 1.22576V7.73539C33.4271 8.26798 33.863 8.70382 34.3956 8.70382ZM0 17.8167H48V44.2401C48 46.1663 46.424 47.7423 44.4979 47.7423H3.50212C1.57603 47.7423 0 46.1664 0 44.2401L0 17.8167ZM39.2446 25.6479H43.6738V21.6307H39.2446V25.6479ZM39.2446 34.3003H43.6738V30.2831H39.2446V34.3003ZM30.515 25.6479H34.9442V21.6307H30.515V25.6479ZM30.515 34.3003H34.9442V30.2831H30.515V34.3003ZM30.515 42.9527H34.9442V38.9355H30.515V42.9527ZM21.7854 25.6479H26.2147V21.6307H21.7854V25.6479ZM21.7854 34.3003H26.2147V30.2831H21.7854V34.3003ZM21.7854 42.9527H26.2147V38.9355H21.7854V42.9527ZM13.0558 34.3003H17.485V30.2831H13.0558V34.3003ZM13.0558 42.9527H17.485V38.9355H13.0558V42.9527ZM4.32619 34.3003H8.75541V30.2831H4.32619V34.3003ZM4.32619 42.9527H8.75541V38.9355H4.32619V42.9527ZM44.4979 4.48057H41.0748V7.73539C41.0748 9.34489 39.7647 10.6549 38.1552 10.6549H34.3956C32.7861 10.6549 31.476 9.34498 31.476 7.73539V4.48057H16.524V7.73539C16.524 9.34489 15.2139 10.6549 13.6044 10.6549H9.84478C8.23528 10.6549 6.92522 9.34498 6.92522 7.73539V4.48057H3.50212C1.57603 4.48057 0 6.05651 0 7.9827V15.8655H48V7.9827C48 6.05651 46.424 4.48057 44.4979 4.48057Z" fill="#999999"/>
</g>
<defs>
<clipPath id="clip0_153_13772">
<rect width="48" height="48" fill="white"/>
</clipPath>
</defs>
</svg>
