<svg width="48" height="48" viewBox="0 0 48 48" fill="none" xmlns="http://www.w3.org/2000/svg">
<path fill-rule="evenodd" clip-rule="evenodd" d="M35.0138 4.03559C31.748 2.22897 27.9925 1.19971 23.9992 1.19971C11.4158 1.19971 1.19922 11.4163 1.19922 23.9997C1.19922 36.5831 11.4158 46.7997 23.9992 46.7997C36.5826 46.7997 46.7992 36.5831 46.7992 23.9997C46.7992 20.0064 45.77 16.251 43.9633 12.9851L43.6735 13.2739C43.0633 13.8852 42.2349 14.2283 41.3706 14.2283H39.6574C41.4304 17.0631 42.4564 20.4125 42.4564 23.9997C42.4564 34.187 34.1865 42.4568 23.9992 42.4568C13.812 42.4568 5.54208 34.187 5.54208 23.9997C5.54208 13.8124 13.812 5.54256 23.9992 5.54256C27.5864 5.54256 30.9359 6.56856 33.7706 8.34153V6.62828C33.7706 5.76405 34.1137 4.93565 34.725 4.32548L35.0138 4.03559Z" fill="#999999"/>
<path fill-rule="evenodd" clip-rule="evenodd" d="M33.77 10.9748C31.0471 8.9271 27.6629 7.71436 23.9986 7.71436C15.01 7.71436 7.71289 15.0114 7.71289 24.0001C7.71289 32.9887 15.01 40.2858 23.9986 40.2858C32.9872 40.2858 40.2843 32.9887 40.2843 24.0001C40.2843 20.3358 39.0716 16.9516 37.0239 14.2286C36.5223 14.2286 36.0468 14.1146 35.6234 13.9116L33.1751 16.3588C34.9024 18.4314 35.9415 21.0947 35.9415 24.0001C35.9415 30.5914 30.59 35.9429 23.9986 35.9429C17.4072 35.9429 12.0557 30.5914 12.0557 24.0001C12.0557 17.4087 17.4072 12.0572 23.9986 12.0572C26.904 12.0572 29.5672 13.0962 31.6399 14.8236L34.0871 12.3753C33.884 11.9508 33.77 11.4764 33.77 10.9748Z" fill="#999999"/>
<path fill-rule="evenodd" clip-rule="evenodd" d="M30.0954 16.3658C28.4233 15.0282 26.3029 14.228 23.998 14.228C18.6052 14.228 14.2266 18.6067 14.2266 23.9995C14.2266 29.3922 18.6052 33.7709 23.998 33.7709C29.3907 33.7709 33.7694 29.3922 33.7694 23.9995C33.7694 21.6945 32.9692 19.5741 31.6317 17.9021L28.5265 21.0061C29.0954 21.8649 29.4266 22.8931 29.4266 23.9995C29.4266 26.996 26.9946 29.428 23.998 29.428C21.0014 29.428 18.5694 26.996 18.5694 23.9995C18.5694 21.0029 21.0014 18.5709 23.998 18.5709C25.1043 18.5709 26.1325 18.902 26.9913 19.4709L30.0954 16.3658Z" fill="#999999"/>
<path fill-rule="evenodd" clip-rule="evenodd" d="M25.4032 21.0608C24.9787 20.8567 24.502 20.7427 23.9993 20.7427C22.2014 20.7427 20.7422 22.2019 20.7422 23.9998C20.7422 25.7978 22.2014 27.257 23.9993 27.257C25.7973 27.257 27.2565 25.7978 27.2565 23.9998C27.2565 23.4971 27.1425 23.0205 26.9384 22.596L24.7669 24.7674C24.3435 25.1908 23.6552 25.1908 23.2317 24.7674C22.8083 24.344 22.8083 23.6556 23.2317 23.2322L25.4032 21.0608Z" fill="#999999"/>
<path fill-rule="evenodd" clip-rule="evenodd" d="M35.9414 10.9711V6.62821C35.9414 6.34049 36.0554 6.06363 36.2595 5.8606L40.6024 1.51775C40.8684 1.25175 41.2527 1.14209 41.6197 1.22895C41.9856 1.31472 42.2809 1.58506 42.4003 1.94226L43.1419 4.16906C43.2504 4.49369 43.5045 4.74775 43.8291 4.85632L46.0559 5.59786C46.4131 5.71729 46.6835 6.0126 46.7692 6.37849C46.8561 6.74546 46.7464 7.12981 46.4804 7.39581L42.1376 11.7387C41.9345 11.9428 41.6577 12.0568 41.37 12.0568H37.0271C36.4278 12.0568 35.9414 11.5704 35.9414 10.9711Z" fill="#999999"/>
</svg>
