<svg width="41" height="48" viewBox="0 0 41 48" fill="none" xmlns="http://www.w3.org/2000/svg">
<g clip-path="url(#clip0_153_13694)">
<path d="M15.8491 4.5283C15.2075 4.5283 14.6698 4.31132 14.2358 3.87736C13.8019 3.4434 13.5849 2.90566 13.5849 2.26415C13.5849 1.62264 13.8019 1.08491 14.2358 0.650943C14.6698 0.216981 15.2075 0 15.8491 0H24.9057C25.5472 0 26.0849 0.216981 26.5189 0.650943C26.9528 1.08491 27.1698 1.62264 27.1698 2.26415C27.1698 2.90566 26.9528 3.4434 26.5189 3.87736C26.0849 4.31132 25.5472 4.5283 24.9057 4.5283H15.8491ZM20.3774 29.434C21.0189 29.434 21.5566 29.217 21.9906 28.783C22.4245 28.3491 22.6415 27.8113 22.6415 27.1698V18.1132C22.6415 17.4717 22.4245 16.934 21.9906 16.5C21.5566 16.066 21.0189 15.8491 20.3774 15.8491C19.7358 15.8491 19.1981 16.066 18.7642 16.5C18.3302 16.934 18.1132 17.4717 18.1132 18.1132V27.1698C18.1132 27.8113 18.3302 28.3491 18.7642 28.783C19.1981 29.217 19.7358 29.434 20.3774 29.434ZM20.3774 47.5472C17.5849 47.5472 14.9528 47.0094 12.4811 45.934C10.0094 44.8585 7.84906 43.3962 6 41.5472C4.15094 39.6981 2.68868 37.5377 1.61321 35.066C0.537736 32.5943 0 29.9623 0 27.1698C0 24.3774 0.537736 21.7453 1.61321 19.2736C2.68868 16.8019 4.15094 14.6415 6 12.7925C7.84906 10.9434 10.0094 9.48113 12.4811 8.40566C14.9528 7.33019 17.5849 6.79245 20.3774 6.79245C22.717 6.79245 24.9623 7.16981 27.1132 7.92453C29.2642 8.67925 31.283 9.77359 33.1698 11.2075L34.7547 9.62264C35.1698 9.20755 35.6981 9 36.3396 9C36.9811 9 37.5094 9.20755 37.9245 9.62264C38.3396 10.0377 38.5472 10.566 38.5472 11.2075C38.5472 11.8491 38.3396 12.3774 37.9245 12.7925L36.3396 14.3774C37.7736 16.2642 38.8679 18.283 39.6226 20.434C40.3774 22.5849 40.7547 24.8302 40.7547 27.1698C40.7547 29.9623 40.217 32.5943 39.1415 35.066C38.066 37.5377 36.6038 39.6981 34.7547 41.5472C32.9057 43.3962 30.7453 44.8585 28.2736 45.934C25.8019 47.0094 23.1698 47.5472 20.3774 47.5472ZM20.3774 43.0189C24.7547 43.0189 28.4906 41.4717 31.5849 38.3774C34.6792 35.283 36.2264 31.5472 36.2264 27.1698C36.2264 22.7925 34.6792 19.0566 31.5849 15.9623C28.4906 12.8679 24.7547 11.3208 20.3774 11.3208C16 11.3208 12.2642 12.8679 9.16981 15.9623C6.07547 19.0566 4.5283 22.7925 4.5283 27.1698C4.5283 31.5472 6.07547 35.283 9.16981 38.3774C12.2642 41.4717 16 43.0189 20.3774 43.0189Z" fill="#999999"/>
</g>
<defs>
<clipPath id="clip0_153_13694">
<rect width="40.7547" height="48" fill="white"/>
</clipPath>
</defs>
</svg>
